<svg width="104" height="104" viewBox="0 0 104 104" fill="none" xmlns="http://www.w3.org/2000/svg">
<path d="M0 52C0 23.2812 23.2812 0 52 0C80.7188 0 104 23.2812 104 52C104 80.7188 80.7188 104 52 104C23.2812 104 0 80.7188 0 52Z" fill="#155DFC"/>
<path d="M38.24 32.6338C38.5312 31.1717 39.2377 29.8245 40.2749 28.7537C41.312 27.6829 42.6359 26.9337 44.088 26.5961C45.54 26.2584 47.0586 26.3465 48.4619 26.8497C49.8652 27.353 51.0936 28.2502 52 29.4338C52.9064 28.2502 54.1349 27.353 55.5381 26.8497C56.9414 26.3465 58.46 26.2584 59.912 26.5961C61.3641 26.9337 62.688 27.6829 63.7252 28.7537C64.7623 29.8245 65.4688 31.1717 65.76 32.6338L66.16 34.6402L67.4592 34.8994C69.4161 35.2919 71.1767 36.3497 72.4419 37.8933C73.7072 39.4368 74.3991 41.3707 74.4 43.3666V44.0002C74.4 46.3234 73.408 48.4162 71.824 49.8786C73.7588 50.8373 75.3469 52.3747 76.3678 54.2774C77.3887 56.1801 77.7917 58.3535 77.5207 60.4957C77.2498 62.6379 76.3184 64.6425 74.8559 66.2311C73.3935 67.8197 71.4725 68.9133 69.36 69.3602L69.2416 69.9522C68.8729 71.7969 67.9656 73.4909 66.6343 74.8201C65.3031 76.1492 63.6076 77.0539 61.7623 77.4197C59.917 77.7854 58.0046 77.5959 56.267 76.8751C54.5294 76.1542 53.0445 74.9344 52 73.3698C50.9555 74.9344 49.4706 76.1542 47.733 76.8751C45.9954 77.5959 44.083 77.7854 42.2377 77.4197C40.3924 77.0539 38.697 76.1492 37.3657 74.8201C36.0344 73.4909 35.1271 71.7969 34.7584 69.9522L34.64 69.3602C32.5275 68.9133 30.6066 67.8197 29.1441 66.2311C27.6816 64.6425 26.7502 62.6379 26.4793 60.4957C26.2083 58.3535 26.6113 56.1801 27.6322 54.2774C28.6531 52.3747 30.2412 50.8373 32.176 49.8786C31.3641 49.1296 30.716 48.2207 30.2727 47.209C29.8293 46.1973 29.6003 45.1047 29.6 44.0002V43.3666C29.6009 41.3707 30.2928 39.4368 31.5581 37.8933C32.8233 36.3497 34.584 35.2919 36.5408 34.8994L37.84 34.6434L38.24 32.6338ZM66.4 52.0002C65.9757 52.0002 65.5687 51.8316 65.2686 51.5315C64.9686 51.2315 64.8 50.8245 64.8 50.4002C64.8 49.9758 64.9686 49.5688 65.2686 49.2688C65.5687 48.9687 65.9757 48.8002 66.4 48.8002C67.673 48.8002 68.8939 48.2944 69.7941 47.3943C70.6943 46.4941 71.2 45.2732 71.2 44.0002V43.3666C71.2 40.7746 69.3728 38.5474 66.832 38.0386L64.4864 37.5682C64.1769 37.5061 63.8927 37.3539 63.6694 37.1307C63.4462 36.9075 63.294 36.6233 63.232 36.3138L62.6208 33.261C62.4014 32.1504 61.7761 31.1614 60.867 30.4868C59.9578 29.8122 58.83 29.5005 57.7035 29.6124C56.577 29.7243 55.5326 30.2518 54.7739 31.092C54.0152 31.9322 53.5967 33.0249 53.6 34.157V68.0866C53.6027 69.6514 54.1864 71.1596 55.2379 72.3185C56.2895 73.4774 57.734 74.2045 59.2913 74.3587C60.8485 74.513 62.4076 74.0834 63.6661 73.1533C64.9246 72.2232 65.7928 70.8589 66.1024 69.325L66.432 67.6866C66.494 67.377 66.6462 67.0928 66.8694 66.8696C67.0927 66.6464 67.3769 66.4942 67.6864 66.4322L68.6176 66.2434C70.3632 65.8888 71.9151 64.8992 72.973 63.4662C74.031 62.0332 74.5196 60.2586 74.3444 58.486C74.1692 56.7135 73.3425 55.0689 72.0245 53.8708C70.7065 52.6726 68.9908 52.0061 67.2096 52.0002H66.4ZM50.4 64.8002V34.1506C50.4025 33.0188 49.9834 31.9266 49.2245 31.087C48.4656 30.2474 47.4212 29.7205 46.2949 29.6091C45.1686 29.4976 44.0412 29.8096 43.1324 30.4841C42.2236 31.1586 41.5986 32.1475 41.3792 33.2578L40.7712 36.3106C40.709 36.6205 40.5563 36.905 40.3325 37.1283C40.1086 37.3516 39.8237 37.5035 39.5136 37.565L37.168 38.0354C35.9363 38.2829 34.8283 38.9492 34.032 39.921C33.2358 40.8928 32.8005 42.1102 32.8 43.3666V44.0002C32.8 45.2732 33.3057 46.4941 34.2059 47.3943C35.1061 48.2944 36.327 48.8002 37.6 48.8002C38.0244 48.8002 38.4313 48.9687 38.7314 49.2688C39.0314 49.5688 39.2 49.9758 39.2 50.4002C39.2 50.8245 39.0314 51.2315 38.7314 51.5315C38.4313 51.8316 38.0244 52.0002 37.6 52.0002H36.7936C35.0121 52.0053 33.2959 52.6713 31.9773 53.8692C30.6587 55.0671 29.8315 56.7117 29.6558 58.4845C29.4802 60.2573 29.9686 62.0322 31.0265 63.4655C32.0844 64.8989 33.6366 65.8887 35.3824 66.2434L36.3136 66.4322C36.6231 66.4942 36.9074 66.6464 37.1306 66.8696C37.3538 67.0928 37.506 67.377 37.568 67.6866L37.8976 69.325C38.2072 70.8589 39.0754 72.2232 40.3339 73.1533C41.5924 74.0834 43.1515 74.513 44.7088 74.3587C46.266 74.2045 47.7105 73.4774 48.7621 72.3185C49.8137 71.1596 50.3974 69.6514 50.4 68.0866V64.8002Z" fill="white"/>
</svg>
