<svg width="104" height="104" viewBox="0 0 104 104" fill="none" xmlns="http://www.w3.org/2000/svg">
<path d="M0 52C0 23.2812 23.2812 0 52 0C80.7188 0 104 23.2812 104 52C104 80.7188 80.7188 104 52 104C23.2812 104 0 80.7188 0 52Z" fill="#155DFC"/>
<path d="M51.5946 52.4055L52.1226 52.5895C60.816 55.5815 71.28 52.7202 78.6666 45.3335M51.5946 52.4055L50.1066 51.8962C41.9946 49.1015 32.2266 51.7735 25.3333 58.6668M51.5946 52.4055L51.4106 51.8775C48.4186 43.1842 51.28 32.7202 58.6666 25.3335M51.5946 52.4055L52.104 53.8935C54.8986 62.0028 52.2266 71.7735 45.3333 78.6668M46.6666 60.0002L51.5813 65.1255ZM38.04 51.5815L41.3333 54.8802ZM51.584 38.0402L57.3333 44.0002ZM62.6666 49.3335L65.1253 51.5815ZM30.6666 54.6668L40 64.0002ZM72.7413 49.0402L63.408 39.7068ZM44.8133 68.5095L49.0453 72.7415ZM58.8986 34.8988L54.6666 30.6668Z" fill="white"/>
<path d="M51.5946 52.4055L52.1226 52.5895C60.816 55.5815 71.28 52.7202 78.6666 45.3335M51.5946 52.4055L50.1066 51.8962C41.9946 49.1015 32.2266 51.7735 25.3333 58.6668M51.5946 52.4055L51.4106 51.8775C48.4186 43.1842 51.28 32.7202 58.6666 25.3335M51.5946 52.4055L52.104 53.8935C54.8986 62.0028 52.2266 71.7735 45.3333 78.6668M46.6666 60.0002L51.5813 65.1255M38.04 51.5815L41.3333 54.8802M51.584 38.0402L57.3333 44.0002M62.6666 49.3335L65.1253 51.5815M30.6666 54.6668L40 64.0002M72.7413 49.0402L63.408 39.7068M44.8133 68.5095L49.0453 72.7415M58.8986 34.8988L54.6666 30.6668" stroke="white" stroke-width="1.5" stroke-linecap="round"/>
</svg>
