<svg width="104" height="104" viewBox="0 0 104 104" fill="none" xmlns="http://www.w3.org/2000/svg">
<path d="M0 52C0 23.2812 23.2812 0 52 0C80.7188 0 104 23.2812 104 52C104 80.7188 80.7188 104 52 104C23.2812 104 0 80.7188 0 52Z" fill="#155DFC"/>
<path fill-rule="evenodd" clip-rule="evenodd" d="M42.1986 32.4347L42.272 32.1147C42.412 31.5201 42.6413 30.6454 43.1146 29.7841C43.5973 28.9067 44.3453 28.0174 45.5186 27.4321C46.688 26.8494 48.1533 26.6321 49.9653 26.8721C51.9653 27.1387 55.9826 27.8001 59.532 29.6054C63.1013 31.4214 66.4453 34.5454 66.4453 39.7481C66.4453 42.4361 65.4053 45.3201 64.3973 47.2001C63.9133 48.1041 63.3386 48.9681 62.7626 49.4334C62.6306 49.5401 62.4426 49.6734 62.2093 49.7667C61.5693 51.8702 60.2952 53.7245 58.5613 55.0764C56.8273 56.4282 54.7182 57.2116 52.5222 57.3192C50.3262 57.4269 48.1505 56.8537 46.2927 55.678C44.4348 54.5023 42.9854 52.7814 42.1426 50.7507L42.1106 50.7561L41.6373 50.1814L41.636 50.1787L41.6333 50.1761L41.6266 50.1667L41.604 50.1401C41.49 49.998 41.3801 49.8526 41.2746 49.7041C40.9874 49.3043 40.7161 48.8933 40.4613 48.4721C39.8346 47.4347 39.0786 45.9574 38.5946 44.2334C38.112 42.5094 37.8906 40.4881 38.3973 38.4027C38.8906 36.3734 40.0546 34.3761 42.1626 32.5921L42.1986 32.4347ZM44.4386 49.2854C45.0169 50.9484 46.1274 52.3743 47.5981 53.3423C49.0688 54.3103 50.8176 54.7664 52.5737 54.6399C54.3298 54.5134 55.9952 53.8114 57.312 52.6426C58.6287 51.4738 59.5234 49.9034 59.8573 48.1747L60.008 48.2254C60.0021 48.15 59.9994 48.0744 60 47.9987C60 45.7921 59.6933 44.2521 59.408 43.2921C59.352 43.1053 59.2902 42.9203 59.2226 42.7374L59.168 42.7401H59.1146C58.1176 42.7615 57.1209 42.6856 56.1386 42.5134C53.8493 42.1267 50.7493 41.1614 47.0986 38.9254C47.0186 39.1041 46.9386 39.3054 46.8586 39.5294C46.5973 40.2694 46.3826 41.1481 46.1973 42.0761C46.0333 42.8934 45.8986 43.7161 45.7706 44.4867L45.7213 44.7907C45.584 45.6174 45.4466 46.4294 45.2866 47.0174C45.0066 48.0387 44.7213 48.7641 44.4386 49.2841M42.572 46.8001C41.9704 45.766 41.4975 44.6623 41.164 43.5134C40.7653 42.0921 40.6186 40.5534 40.9893 39.0321C41.3493 37.5521 42.22 35.9961 44.0106 34.5214C44.3333 34.3027 44.48 34.0094 44.52 33.9307V33.9294C44.5894 33.785 44.6456 33.6346 44.688 33.4801C44.7306 33.3281 44.7773 33.1201 44.8213 32.9334L44.868 32.7241C44.9946 32.1867 45.1586 31.6014 45.452 31.0667C45.7373 30.5494 46.128 30.1067 46.7093 29.8174C47.2933 29.5254 48.1973 29.3254 49.6133 29.5147C51.5506 29.7721 55.1946 30.3894 58.3226 31.9814C61.4293 33.5614 63.7786 35.9534 63.7786 39.7467C63.7786 41.4934 63.192 43.4801 62.4853 45.0467C62.352 44.0254 62.16 43.1907 61.9626 42.5294C61.8236 42.0572 61.6521 41.5952 61.4493 41.1467C61.3716 40.9811 61.2871 40.8187 61.196 40.6601L61.1733 40.6241L61.1653 40.6107L61.1613 40.6041L61.1586 40.6001L60.6653 39.8347L59.7826 40.0121L59.764 40.0161L59.6346 40.0334C59.4362 40.0557 59.2369 40.069 59.0373 40.0734C58.2152 40.0892 57.3936 40.0249 56.584 39.8814C54.4333 39.5187 51.2733 38.5307 47.4346 35.9747L46.5013 35.3521L45.7293 36.1654C45.0933 36.8347 44.6613 37.7481 44.3453 38.6374C44.0226 39.5507 43.7786 40.5707 43.5826 41.5494C43.4201 42.3822 43.2725 43.2179 43.14 44.0561L43.0893 44.3547C42.9466 45.2227 42.8306 45.8854 42.7133 46.3147C42.6653 46.4916 42.6182 46.6534 42.572 46.8001Z" fill="white"/>
<path fill-rule="evenodd" clip-rule="evenodd" d="M43.8853 58.4736C43.6027 57.9109 43.2547 57.2163 42.6667 57.3509C35.4613 58.9909 28 63.7256 28 68.7603V76.0003H76V68.7603C76 64.7949 71.3707 61.0149 65.884 58.7869L65.8773 58.7736L65.8587 58.7376L65.8147 58.7589C64.3573 58.1723 62.84 57.6923 61.3333 57.3509C60.6627 57.1976 59.9693 58.1203 59.6667 58.6976H44L43.8853 58.4736ZM61.8707 60.2336C62.4538 60.3954 63.032 60.5763 63.6053 60.7763C63.6213 61.2323 63.5867 61.7709 63.512 62.3203C63.4365 62.8891 63.3152 63.4509 63.1493 64.0003H61.3333C61.0858 64.0004 60.8432 64.0694 60.6326 64.1997C60.4221 64.3299 60.252 64.5162 60.1413 64.7376L58.808 67.4043C58.7153 67.5893 58.6669 67.7933 58.6667 68.0003V70.6669C58.6667 71.0206 58.8071 71.3597 59.0572 71.6097C59.3072 71.8598 59.6464 72.0003 60 72.0003H62.6667V69.3336H61.3333V68.3149L62.1573 66.6669H65.8427L66.6667 68.3149V69.3336H65.3333V72.0003H68C68.3536 72.0003 68.6928 71.8598 68.9428 71.6097C69.1929 71.3597 69.3333 71.0206 69.3333 70.6669V68.0003C69.3331 67.7933 69.2847 67.5893 69.192 67.4043L67.8587 64.7376C67.748 64.5162 67.5779 64.3299 67.3674 64.1997C67.1568 64.0694 66.9142 64.0004 66.6667 64.0003H65.912C66.0751 63.2943 66.1856 62.5772 66.2427 61.8549C67.5427 62.4696 68.7507 63.1749 69.7973 63.9376C72.36 65.8069 73.3333 67.5563 73.3333 68.7603V73.3336H30.6667V68.7603C30.6667 67.5563 31.64 65.8069 34.2027 63.9376C35.4907 62.9976 37.028 62.1469 38.676 61.4429C38.722 62.5054 38.8925 63.5588 39.184 64.5816L39.1947 64.6189C38.3976 65.1232 37.8043 65.893 37.5196 66.7922C37.235 67.6915 37.2773 68.6624 37.6391 69.5335C38.0009 70.4046 38.6589 71.1198 39.4968 71.5528C40.3348 71.9859 41.2988 72.1089 42.2186 71.9001C43.1385 71.6913 43.9549 71.1641 44.5238 70.4118C45.0927 69.6594 45.3774 68.7302 45.3276 67.7883C45.2778 66.8463 44.8968 65.9523 44.2518 65.2641C43.6068 64.5758 42.7394 64.1376 41.8027 64.0269L41.744 63.8349C41.603 63.3383 41.4983 62.8321 41.4307 62.3203C41.3559 61.8034 41.3247 61.2811 41.3373 60.7589C41.3418 60.6469 41.3484 60.5474 41.3573 60.4603C41.5173 60.4105 41.6773 60.3629 41.8373 60.3176L42.3907 61.3656H61.276L61.8707 60.2336ZM41.3333 69.3549C42.0507 69.3549 42.6667 68.7683 42.6667 68.0016C42.6667 67.2363 42.0507 66.6483 41.3333 66.6483C40.616 66.6483 40 67.2349 40 68.0016C40 68.7669 40.616 69.3549 41.3333 69.3549Z" fill="white"/>
</svg>
