<svg width="104" height="104" viewBox="0 0 104 104" fill="none" xmlns="http://www.w3.org/2000/svg">
<path d="M0 52C0 23.2812 23.2812 0 52 0C80.7188 0 104 23.2812 104 52C104 80.7188 80.7188 104 52 104C23.2812 104 0 80.7188 0 52Z" fill="#155DFC"/>
<path d="M69.16 37.24H65.3467V34.84C65.3467 33.0719 64.6443 31.3762 63.394 30.126C62.1438 28.8757 60.4481 28.1733 58.68 28.1733H45.3467C43.5786 28.1733 41.8829 28.8757 40.6326 30.126C39.3824 31.3762 38.68 33.0719 38.68 34.84V37.24H34.84C33.0719 37.24 31.3762 37.9424 30.126 39.1926C28.8757 40.4429 28.1733 42.1386 28.1733 43.9067V69.16C28.1733 70.9281 28.8757 72.6238 30.126 73.8741C31.3762 75.1243 33.0719 75.8267 34.84 75.8267H69.16C70.0355 75.8267 70.9024 75.6542 71.7112 75.3192C72.5201 74.9842 73.255 74.4931 73.8741 73.8741C74.4931 73.255 74.9842 72.5201 75.3192 71.7112C75.6542 70.9024 75.8267 70.0355 75.8267 69.16V43.9067C75.8267 43.0312 75.6542 42.1643 75.3192 41.3555C74.9842 40.5466 74.4931 39.8117 73.8741 39.1926C73.255 38.5736 72.5201 38.0825 71.7112 37.7475C70.9024 37.4124 70.0355 37.24 69.16 37.24ZM41.3467 34.84C41.3467 33.7791 41.7681 32.7617 42.5182 32.0116C43.2684 31.2614 44.2858 30.84 45.3467 30.84H58.68C59.7409 30.84 60.7583 31.2614 61.5084 32.0116C62.2586 32.7617 62.68 33.7791 62.68 34.84V37.24H41.3467V34.84ZM73.16 69.16C73.16 70.2209 72.7386 71.2383 71.9884 71.9884C71.2383 72.7386 70.2209 73.16 69.16 73.16H34.84C33.7791 73.16 32.7617 72.7386 32.0116 71.9884C31.2614 71.2383 30.84 70.2209 30.84 69.16V43.9067C30.84 42.8458 31.2614 41.8284 32.0116 41.0782C32.7617 40.3281 33.7791 39.9067 34.84 39.9067H69.16C70.2209 39.9067 71.2383 40.3281 71.9884 41.0782C72.7386 41.8284 73.16 42.8458 73.16 43.9067V69.16Z" fill="white"/>
<path d="M58.68 56.4665C58.68 56.8201 58.5395 57.1592 58.2895 57.4093C58.0394 57.6593 57.7003 57.7998 57.3467 57.7998H53.3467V61.7998C53.3467 62.1534 53.2062 62.4926 52.9561 62.7426C52.7061 62.9927 52.367 63.1331 52.0133 63.1331C51.6597 63.1331 51.3206 62.9927 51.0705 62.7426C50.8205 62.4926 50.68 62.1534 50.68 61.7998V57.7998H46.68C46.3264 57.7998 45.9872 57.6593 45.7372 57.4093C45.4871 57.1592 45.3467 56.8201 45.3467 56.4665C45.3467 56.1128 45.4871 55.7737 45.7372 55.5237C45.9872 55.2736 46.3264 55.1331 46.68 55.1331H50.68V51.1331C50.68 50.7795 50.8205 50.4404 51.0705 50.1903C51.3206 49.9403 51.6597 49.7998 52.0133 49.7998C52.3648 49.8066 52.7 49.9493 52.9486 50.1979C53.1972 50.4465 53.3398 50.7817 53.3467 51.1331V55.1331H57.3467C57.6981 55.14 58.0333 55.2826 58.2819 55.5312C58.5305 55.7798 58.6732 56.115 58.68 56.4665Z" fill="white"/>
</svg>
