<svg width="104" height="104" viewBox="0 0 104 104" fill="none" xmlns="http://www.w3.org/2000/svg">
<path d="M0 52C0 23.2812 23.2812 0 52 0C80.7188 0 104 23.2812 104 52C104 80.7188 80.7188 104 52 104C23.2812 104 0 80.7188 0 52Z" fill="#155DFC"/>
<path d="M55.904 76.0002C51.8258 76.0002 48.352 74.5762 45.4826 71.7282C42.6133 68.8802 41.1786 65.4153 41.1786 61.3335V59.9548C37.8009 59.6402 34.9564 58.2179 32.6453 55.6882C30.3342 53.1619 29.1786 50.1548 29.1786 46.6668V32.0002H37.1786V29.3335H39.8453V37.3335H37.1786V34.6668H31.8453V46.6668C31.8453 49.6002 32.8898 52.1113 34.9787 54.2002C37.0675 56.2891 39.5787 57.3335 42.512 57.3335C45.4453 57.3335 47.9564 56.2891 50.0453 54.2002C52.1342 52.1113 53.1786 49.6002 53.1786 46.6668V34.6668H47.8453V37.3335H45.1787V29.3335H47.8453V32.0002H55.8453V46.6668C55.8453 50.1548 54.6898 53.1628 52.3787 55.6908C50.0675 58.2188 47.2231 59.6402 43.8453 59.9548V61.3335C43.8453 64.6668 45.0169 67.5006 47.36 69.8348C49.7066 72.1673 52.5538 73.3335 55.9013 73.3335C59.2346 73.3335 62.0675 72.1673 64.4 69.8348C66.7324 67.5024 67.8995 64.6686 67.9013 61.3335V57.1735C66.6533 56.8802 65.6231 56.2242 64.8107 55.2055C63.9982 54.1868 63.592 53.0153 63.592 51.6908C63.592 50.1264 64.1413 48.7948 65.24 47.6962C66.3386 46.5993 67.672 46.0508 69.24 46.0508C70.808 46.0508 72.1395 46.5993 73.2346 47.6962C74.3298 48.7931 74.8764 50.1255 74.8746 51.6935C74.8746 53.0162 74.4684 54.1868 73.656 55.2055C72.8453 56.2242 71.816 56.8811 70.568 57.1762V61.3335C70.568 65.4153 69.144 68.8802 66.296 71.7282C63.448 74.5762 59.984 76.0002 55.904 76.0002Z" fill="white"/>
</svg>
